<?xml version="1.0" standalone="no"?>
<!DOCTYPE svg PUBLIC "-//W3C//DTD SVG 20010904//EN"
 "http://www.w3.org/TR/2001/REC-SVG-20010904/DTD/svg10.dtd">
<svg version="1.0" xmlns="http://www.w3.org/2000/svg"
 width="246.000000pt" height="246.000000pt" viewBox="0 0 246.000000 246.000000"
 preserveAspectRatio="xMidYMid meet">
<metadata>
Created by potrace 1.11, written by Peter Selinger 2001-2013
</metadata>
<g transform="translate(0.000000,246.000000) scale(0.100000,-0.100000)"
fill="#000000" stroke="none">
<path d="M1075 2425 c-203 -31 -394 -110 -550 -228 -71 -54 -219 -210 -267
-282 -81 -123 -142 -263 -177 -405 -43 -182 -34 -431 25 -620 131 -424 499
-749 934 -823 99 -17 336 -16 420 2 30 7 65 14 77 17 41 8 167 56 228 86 227
113 430 316 543 543 132 267 156 619 61 905 -95 286 -307 536 -579 683 -72 39
-253 102 -315 111 -22 3 -51 8 -65 11 -51 12 -258 12 -335 0z"/>
</g>
</svg>
